<mxfile host="Electron" modified="2024-07-10T12:58:35.684Z" agent="Mozilla/5.0 (Macintosh; Intel Mac OS X 10_15_7) AppleWebKit/537.36 (KHTML, like Gecko) draw.io/24.6.4 Chrome/124.0.6367.207 Electron/30.0.6 Safari/537.36" etag="dyA2DaGqf-SF06iSrfl4" version="24.6.4" type="device" pages="3">
  <diagram name="Page-1" id="13e1069c-82ec-6db2-03f1-153e76fe0fe0">
    <mxGraphModel dx="1434" dy="854" grid="1" gridSize="10" guides="1" tooltips="1" connect="1" arrows="1" fold="1" page="1" pageScale="1" pageWidth="1100" pageHeight="850" background="none" math="0" shadow="0">
      <root>
        <mxCell id="0" />
        <mxCell id="1" parent="0" />
        <mxCell id="7baba1c4bc27f4b0-2" value=":Object" style="shape=umlLifeline;perimeter=lifelinePerimeter;whiteSpace=wrap;html=1;container=1;collapsible=0;recursiveResize=0;outlineConnect=0;rounded=1;shadow=0;comic=0;labelBackgroundColor=none;strokeWidth=1;fontFamily=Verdana;fontSize=12;align=center;" parent="1" vertex="1">
          <mxGeometry x="240" y="80" width="100" height="580" as="geometry" />
        </mxCell>
        <mxCell id="7baba1c4bc27f4b0-10" value="" style="html=1;points=[];perimeter=orthogonalPerimeter;rounded=0;shadow=0;comic=0;labelBackgroundColor=none;strokeWidth=1;fontFamily=Verdana;fontSize=12;align=center;" parent="7baba1c4bc27f4b0-2" vertex="1">
          <mxGeometry x="45" y="100" width="10" height="230" as="geometry" />
        </mxCell>
        <mxCell id="7baba1c4bc27f4b0-3" value=":Object" style="shape=umlLifeline;perimeter=lifelinePerimeter;whiteSpace=wrap;html=1;container=1;collapsible=0;recursiveResize=0;outlineConnect=0;rounded=1;shadow=0;comic=0;labelBackgroundColor=none;strokeWidth=1;fontFamily=Verdana;fontSize=12;align=center;" parent="1" vertex="1">
          <mxGeometry x="400" y="80" width="100" height="580" as="geometry" />
        </mxCell>
        <mxCell id="7baba1c4bc27f4b0-13" value="" style="html=1;points=[];perimeter=orthogonalPerimeter;rounded=0;shadow=0;comic=0;labelBackgroundColor=none;strokeWidth=1;fontFamily=Verdana;fontSize=12;align=center;" parent="7baba1c4bc27f4b0-3" vertex="1">
          <mxGeometry x="45" y="120" width="10" height="200" as="geometry" />
        </mxCell>
        <mxCell id="7baba1c4bc27f4b0-4" value=":Object" style="shape=umlLifeline;perimeter=lifelinePerimeter;whiteSpace=wrap;html=1;container=1;collapsible=0;recursiveResize=0;outlineConnect=0;rounded=1;shadow=0;comic=0;labelBackgroundColor=none;strokeWidth=1;fontFamily=Verdana;fontSize=12;align=center;" parent="1" vertex="1">
          <mxGeometry x="540" y="80" width="100" height="580" as="geometry" />
        </mxCell>
        <mxCell id="7baba1c4bc27f4b0-5" value=":Object" style="shape=umlLifeline;perimeter=lifelinePerimeter;whiteSpace=wrap;html=1;container=1;collapsible=0;recursiveResize=0;outlineConnect=0;rounded=1;shadow=0;comic=0;labelBackgroundColor=none;strokeWidth=1;fontFamily=Verdana;fontSize=12;align=center;" parent="1" vertex="1">
          <mxGeometry x="680" y="80" width="100" height="580" as="geometry" />
        </mxCell>
        <mxCell id="7baba1c4bc27f4b0-6" value=":Object" style="shape=umlLifeline;perimeter=lifelinePerimeter;whiteSpace=wrap;html=1;container=1;collapsible=0;recursiveResize=0;outlineConnect=0;rounded=1;shadow=0;comic=0;labelBackgroundColor=none;strokeWidth=1;fontFamily=Verdana;fontSize=12;align=center;" parent="1" vertex="1">
          <mxGeometry x="820" y="80" width="100" height="580" as="geometry" />
        </mxCell>
        <mxCell id="7baba1c4bc27f4b0-7" value=":Object" style="shape=umlLifeline;perimeter=lifelinePerimeter;whiteSpace=wrap;html=1;container=1;collapsible=0;recursiveResize=0;outlineConnect=0;rounded=1;shadow=0;comic=0;labelBackgroundColor=none;strokeWidth=1;fontFamily=Verdana;fontSize=12;align=center;" parent="1" vertex="1">
          <mxGeometry x="960" y="80" width="100" height="580" as="geometry" />
        </mxCell>
        <mxCell id="7baba1c4bc27f4b0-8" value=":Object" style="shape=umlLifeline;perimeter=lifelinePerimeter;whiteSpace=wrap;html=1;container=1;collapsible=0;recursiveResize=0;outlineConnect=0;rounded=1;shadow=0;comic=0;labelBackgroundColor=none;strokeWidth=1;fontFamily=Verdana;fontSize=12;align=center;" parent="1" vertex="1">
          <mxGeometry x="100" y="80" width="100" height="580" as="geometry" />
        </mxCell>
        <mxCell id="7baba1c4bc27f4b0-9" value="" style="html=1;points=[];perimeter=orthogonalPerimeter;rounded=0;shadow=0;comic=0;labelBackgroundColor=none;strokeWidth=1;fontFamily=Verdana;fontSize=12;align=center;" parent="7baba1c4bc27f4b0-8" vertex="1">
          <mxGeometry x="45" y="100" width="10" height="440" as="geometry" />
        </mxCell>
        <mxCell id="7baba1c4bc27f4b0-16" value="" style="html=1;points=[];perimeter=orthogonalPerimeter;rounded=0;shadow=0;comic=0;labelBackgroundColor=none;strokeWidth=1;fontFamily=Verdana;fontSize=12;align=center;" parent="1" vertex="1">
          <mxGeometry x="585" y="220" width="10" height="180" as="geometry" />
        </mxCell>
        <mxCell id="7baba1c4bc27f4b0-17" value="dispatch" style="html=1;verticalAlign=bottom;endArrow=block;labelBackgroundColor=none;fontFamily=Verdana;fontSize=12;edgeStyle=elbowEdgeStyle;elbow=vertical;" parent="1" source="7baba1c4bc27f4b0-13" target="7baba1c4bc27f4b0-16" edge="1">
          <mxGeometry relative="1" as="geometry">
            <mxPoint x="510" y="220" as="sourcePoint" />
            <Array as="points">
              <mxPoint x="460" y="220" />
            </Array>
          </mxGeometry>
        </mxCell>
        <mxCell id="7baba1c4bc27f4b0-19" value="" style="html=1;points=[];perimeter=orthogonalPerimeter;rounded=0;shadow=0;comic=0;labelBackgroundColor=none;strokeWidth=1;fontFamily=Verdana;fontSize=12;align=center;" parent="1" vertex="1">
          <mxGeometry x="725" y="230" width="10" height="40" as="geometry" />
        </mxCell>
        <mxCell id="7baba1c4bc27f4b0-20" value="dispatch" style="html=1;verticalAlign=bottom;endArrow=block;entryX=0;entryY=0;labelBackgroundColor=none;fontFamily=Verdana;fontSize=12;edgeStyle=elbowEdgeStyle;elbow=vertical;" parent="1" source="7baba1c4bc27f4b0-16" target="7baba1c4bc27f4b0-19" edge="1">
          <mxGeometry relative="1" as="geometry">
            <mxPoint x="650" y="230" as="sourcePoint" />
          </mxGeometry>
        </mxCell>
        <mxCell id="7baba1c4bc27f4b0-21" value="return" style="html=1;verticalAlign=bottom;endArrow=open;dashed=1;endSize=8;labelBackgroundColor=none;fontFamily=Verdana;fontSize=12;edgeStyle=elbowEdgeStyle;elbow=vertical;" parent="1" source="7baba1c4bc27f4b0-19" target="7baba1c4bc27f4b0-16" edge="1">
          <mxGeometry relative="1" as="geometry">
            <mxPoint x="650" y="306" as="targetPoint" />
            <Array as="points">
              <mxPoint x="670" y="260" />
              <mxPoint x="700" y="260" />
            </Array>
          </mxGeometry>
        </mxCell>
        <mxCell id="7baba1c4bc27f4b0-22" value="" style="html=1;points=[];perimeter=orthogonalPerimeter;rounded=0;shadow=0;comic=0;labelBackgroundColor=none;strokeWidth=1;fontFamily=Verdana;fontSize=12;align=center;" parent="1" vertex="1">
          <mxGeometry x="585" y="440" width="10" height="140" as="geometry" />
        </mxCell>
        <mxCell id="7baba1c4bc27f4b0-23" value="dispatch" style="html=1;verticalAlign=bottom;endArrow=block;entryX=0;entryY=0;labelBackgroundColor=none;fontFamily=Verdana;fontSize=12;" parent="1" source="7baba1c4bc27f4b0-9" target="7baba1c4bc27f4b0-22" edge="1">
          <mxGeometry relative="1" as="geometry">
            <mxPoint x="510" y="420" as="sourcePoint" />
          </mxGeometry>
        </mxCell>
        <mxCell id="7baba1c4bc27f4b0-25" value="" style="html=1;points=[];perimeter=orthogonalPerimeter;rounded=0;shadow=0;comic=0;labelBackgroundColor=none;strokeColor=#000000;strokeWidth=1;fillColor=#FFFFFF;fontFamily=Verdana;fontSize=12;fontColor=#000000;align=center;" parent="1" vertex="1">
          <mxGeometry x="1005" y="460" width="10" height="30" as="geometry" />
        </mxCell>
        <mxCell id="7baba1c4bc27f4b0-26" value="dispatch" style="html=1;verticalAlign=bottom;endArrow=block;entryX=0;entryY=0;labelBackgroundColor=none;fontFamily=Verdana;fontSize=12;" parent="1" source="7baba1c4bc27f4b0-22" target="7baba1c4bc27f4b0-25" edge="1">
          <mxGeometry relative="1" as="geometry">
            <mxPoint x="930" y="340" as="sourcePoint" />
          </mxGeometry>
        </mxCell>
        <mxCell id="7baba1c4bc27f4b0-27" value="return" style="html=1;verticalAlign=bottom;endArrow=open;dashed=1;endSize=8;exitX=0;exitY=0.95;labelBackgroundColor=none;fontFamily=Verdana;fontSize=12;" parent="1" source="7baba1c4bc27f4b0-25" target="7baba1c4bc27f4b0-22" edge="1">
          <mxGeometry relative="1" as="geometry">
            <mxPoint x="930" y="416" as="targetPoint" />
          </mxGeometry>
        </mxCell>
        <mxCell id="7baba1c4bc27f4b0-28" value="" style="html=1;points=[];perimeter=orthogonalPerimeter;rounded=0;shadow=0;comic=0;labelBackgroundColor=none;strokeWidth=1;fontFamily=Verdana;fontSize=12;align=center;" parent="1" vertex="1">
          <mxGeometry x="870" y="550" width="10" height="60" as="geometry" />
        </mxCell>
        <mxCell id="7baba1c4bc27f4b0-29" value="dispatch" style="html=1;verticalAlign=bottom;endArrow=block;entryX=0;entryY=0;labelBackgroundColor=none;fontFamily=Verdana;fontSize=12;edgeStyle=elbowEdgeStyle;elbow=vertical;" parent="1" source="7baba1c4bc27f4b0-37" target="7baba1c4bc27f4b0-28" edge="1">
          <mxGeometry relative="1" as="geometry">
            <mxPoint x="800" y="550" as="sourcePoint" />
          </mxGeometry>
        </mxCell>
        <mxCell id="7baba1c4bc27f4b0-30" value="return" style="html=1;verticalAlign=bottom;endArrow=open;dashed=1;endSize=8;labelBackgroundColor=none;fontFamily=Verdana;fontSize=12;edgeStyle=elbowEdgeStyle;elbow=vertical;" parent="1" source="7baba1c4bc27f4b0-28" target="7baba1c4bc27f4b0-9" edge="1">
          <mxGeometry relative="1" as="geometry">
            <mxPoint x="800" y="626" as="targetPoint" />
            <Array as="points">
              <mxPoint x="570" y="600" />
            </Array>
          </mxGeometry>
        </mxCell>
        <mxCell id="7baba1c4bc27f4b0-11" value="dispatch" style="html=1;verticalAlign=bottom;endArrow=block;entryX=0;entryY=0;labelBackgroundColor=none;fontFamily=Verdana;fontSize=12;edgeStyle=elbowEdgeStyle;elbow=vertical;" parent="1" source="7baba1c4bc27f4b0-9" target="7baba1c4bc27f4b0-10" edge="1">
          <mxGeometry relative="1" as="geometry">
            <mxPoint x="220" y="190" as="sourcePoint" />
          </mxGeometry>
        </mxCell>
        <mxCell id="7baba1c4bc27f4b0-14" value="dispatch" style="html=1;verticalAlign=bottom;endArrow=block;entryX=0;entryY=0;labelBackgroundColor=none;fontFamily=Verdana;fontSize=12;edgeStyle=elbowEdgeStyle;elbow=vertical;" parent="1" source="7baba1c4bc27f4b0-10" target="7baba1c4bc27f4b0-13" edge="1">
          <mxGeometry relative="1" as="geometry">
            <mxPoint x="370" y="200" as="sourcePoint" />
          </mxGeometry>
        </mxCell>
        <mxCell id="7baba1c4bc27f4b0-34" value="" style="html=1;points=[];perimeter=orthogonalPerimeter;rounded=0;shadow=0;comic=0;labelBackgroundColor=none;strokeWidth=1;fontFamily=Verdana;fontSize=12;align=center;" parent="1" vertex="1">
          <mxGeometry x="590" y="300" width="10" height="70" as="geometry" />
        </mxCell>
        <mxCell id="7baba1c4bc27f4b0-35" value="dispatch" style="html=1;verticalAlign=bottom;endArrow=block;labelBackgroundColor=none;fontFamily=Verdana;fontSize=12;elbow=vertical;edgeStyle=orthogonalEdgeStyle;curved=1;entryX=1;entryY=0.286;entryPerimeter=0;exitX=1.038;exitY=0.345;exitPerimeter=0;" parent="1" source="7baba1c4bc27f4b0-16" target="7baba1c4bc27f4b0-34" edge="1">
          <mxGeometry relative="1" as="geometry">
            <mxPoint x="465" y="230" as="sourcePoint" />
            <mxPoint x="595" y="230" as="targetPoint" />
            <Array as="points">
              <mxPoint x="650" y="282" />
              <mxPoint x="650" y="320" />
            </Array>
          </mxGeometry>
        </mxCell>
        <mxCell id="7baba1c4bc27f4b0-36" value="dispatch" style="html=1;verticalAlign=bottom;endArrow=block;labelBackgroundColor=none;fontFamily=Verdana;fontSize=12;elbow=vertical;edgeStyle=orthogonalEdgeStyle;curved=1;exitX=1.066;exitY=0.713;exitPerimeter=0;" parent="1" source="7baba1c4bc27f4b0-34" edge="1">
          <mxGeometry relative="1" as="geometry">
            <mxPoint x="610.3333333333333" y="350" as="sourcePoint" />
            <mxPoint x="595" y="389" as="targetPoint" />
            <Array as="points">
              <mxPoint x="650" y="350" />
              <mxPoint x="650" y="389" />
            </Array>
          </mxGeometry>
        </mxCell>
        <mxCell id="7baba1c4bc27f4b0-37" value="" style="html=1;points=[];perimeter=orthogonalPerimeter;rounded=0;shadow=0;comic=0;labelBackgroundColor=none;strokeWidth=1;fontFamily=Verdana;fontSize=12;align=center;" parent="1" vertex="1">
          <mxGeometry x="590" y="520" width="10" height="40" as="geometry" />
        </mxCell>
        <mxCell id="7baba1c4bc27f4b0-39" value="dispatch" style="html=1;verticalAlign=bottom;endArrow=block;labelBackgroundColor=none;fontFamily=Verdana;fontSize=12;elbow=vertical;edgeStyle=orthogonalEdgeStyle;curved=1;entryX=1;entryY=0.286;entryPerimeter=0;exitX=1.038;exitY=0.345;exitPerimeter=0;" parent="1" edge="1">
          <mxGeometry relative="1" as="geometry">
            <mxPoint x="595.3333333333335" y="501" as="sourcePoint" />
            <mxPoint x="600.3333333333335" y="539.3333333333334" as="targetPoint" />
            <Array as="points">
              <mxPoint x="650" y="501" />
              <mxPoint x="650" y="539" />
            </Array>
          </mxGeometry>
        </mxCell>
        <mxCell id="7baba1c4bc27f4b0-40" value="Note" style="shape=note;whiteSpace=wrap;html=1;size=14;verticalAlign=top;align=left;spacingTop=-6;rounded=0;shadow=0;comic=0;labelBackgroundColor=none;strokeWidth=1;fontFamily=Verdana;fontSize=12" parent="1" vertex="1">
          <mxGeometry x="100" y="30" width="100" height="35" as="geometry" />
        </mxCell>
        <mxCell id="7baba1c4bc27f4b0-41" value="Note" style="shape=note;whiteSpace=wrap;html=1;size=14;verticalAlign=top;align=left;spacingTop=-6;rounded=0;shadow=0;comic=0;labelBackgroundColor=none;strokeWidth=1;fontFamily=Verdana;fontSize=12" parent="1" vertex="1">
          <mxGeometry x="240" y="30" width="100" height="35" as="geometry" />
        </mxCell>
        <mxCell id="7baba1c4bc27f4b0-42" value="Note" style="shape=note;whiteSpace=wrap;html=1;size=14;verticalAlign=top;align=left;spacingTop=-6;rounded=0;shadow=0;comic=0;labelBackgroundColor=none;strokeWidth=1;fontFamily=Verdana;fontSize=12" parent="1" vertex="1">
          <mxGeometry x="400" y="30" width="100" height="35" as="geometry" />
        </mxCell>
        <mxCell id="7baba1c4bc27f4b0-43" value="Note" style="shape=note;whiteSpace=wrap;html=1;size=14;verticalAlign=top;align=left;spacingTop=-6;rounded=0;shadow=0;comic=0;labelBackgroundColor=none;strokeWidth=1;fontFamily=Verdana;fontSize=12" parent="1" vertex="1">
          <mxGeometry x="540" y="30" width="100" height="35" as="geometry" />
        </mxCell>
        <mxCell id="7baba1c4bc27f4b0-44" value="Note" style="shape=note;whiteSpace=wrap;html=1;size=14;verticalAlign=top;align=left;spacingTop=-6;rounded=0;shadow=0;comic=0;labelBackgroundColor=none;strokeWidth=1;fontFamily=Verdana;fontSize=12" parent="1" vertex="1">
          <mxGeometry x="680" y="30" width="100" height="35" as="geometry" />
        </mxCell>
        <mxCell id="7baba1c4bc27f4b0-45" value="Note" style="shape=note;whiteSpace=wrap;html=1;size=14;verticalAlign=top;align=left;spacingTop=-6;rounded=0;shadow=0;comic=0;labelBackgroundColor=none;strokeWidth=1;fontFamily=Verdana;fontSize=12" parent="1" vertex="1">
          <mxGeometry x="820" y="30" width="100" height="35" as="geometry" />
        </mxCell>
        <mxCell id="7baba1c4bc27f4b0-46" value="Note" style="shape=note;whiteSpace=wrap;html=1;size=14;verticalAlign=top;align=left;spacingTop=-6;rounded=0;shadow=0;comic=0;labelBackgroundColor=none;strokeWidth=1;fontFamily=Verdana;fontSize=12" parent="1" vertex="1">
          <mxGeometry x="960" y="30" width="100" height="35" as="geometry" />
        </mxCell>
      </root>
    </mxGraphModel>
  </diagram>
  <diagram id="il438St8za5XjBgl8HT_" name="PubSub">
    <mxGraphModel dx="1434" dy="907" grid="1" gridSize="10" guides="1" tooltips="1" connect="1" arrows="1" fold="1" page="1" pageScale="1" pageWidth="394" pageHeight="508" math="0" shadow="0">
      <root>
        <mxCell id="0" />
        <mxCell id="1" parent="0" />
        <mxCell id="iCpca2zt7FOvX1AVPzIG-29" value="" style="line;strokeWidth=2;direction=south;html=1;verticalAlign=bottom;" parent="1" vertex="1">
          <mxGeometry x="7" y="46" width="20" height="270" as="geometry" />
        </mxCell>
        <mxCell id="iCpca2zt7FOvX1AVPzIG-30" value="" style="line;strokeWidth=2;direction=south;html=1;verticalAlign=bottom;" parent="1" vertex="1">
          <mxGeometry x="187" y="46" width="20" height="270" as="geometry" />
        </mxCell>
        <mxCell id="iCpca2zt7FOvX1AVPzIG-31" value="" style="line;strokeWidth=2;direction=south;html=1;verticalAlign=bottom;" parent="1" vertex="1">
          <mxGeometry x="367" y="46" width="20" height="270" as="geometry" />
        </mxCell>
        <mxCell id="iCpca2zt7FOvX1AVPzIG-32" value="" style="edgeStyle=segmentEdgeStyle;endArrow=classic;html=1;curved=0;rounded=0;endSize=8;startSize=8;verticalAlign=bottom;fontSize=10;exitX=0.148;exitY=0.45;exitDx=0;exitDy=0;exitPerimeter=0;" parent="1" source="iCpca2zt7FOvX1AVPzIG-29" edge="1">
          <mxGeometry width="50" height="50" relative="1" as="geometry">
            <mxPoint x="37.010000000000005" y="86" as="sourcePoint" />
            <mxPoint x="197.01" y="86" as="targetPoint" />
          </mxGeometry>
        </mxCell>
        <mxCell id="iCpca2zt7FOvX1AVPzIG-34" value="" style="edgeStyle=segmentEdgeStyle;endArrow=classic;html=1;curved=0;rounded=0;endSize=8;startSize=8;entryX=0.244;entryY=0.453;entryDx=0;entryDy=0;entryPerimeter=0;verticalAlign=bottom;fontSize=10;" parent="1" target="iCpca2zt7FOvX1AVPzIG-29" edge="1">
          <mxGeometry width="50" height="50" relative="1" as="geometry">
            <mxPoint x="197.01" y="111" as="sourcePoint" />
            <mxPoint x="37.010000000000005" y="110.78999999999999" as="targetPoint" />
          </mxGeometry>
        </mxCell>
        <mxCell id="iCpca2zt7FOvX1AVPzIG-35" value="" style="edgeStyle=segmentEdgeStyle;endArrow=classic;html=1;curved=0;rounded=0;endSize=8;startSize=8;verticalAlign=bottom;fontSize=10;exitX=0.334;exitY=0.502;exitDx=0;exitDy=0;exitPerimeter=0;" parent="1" source="iCpca2zt7FOvX1AVPzIG-29" edge="1">
          <mxGeometry width="50" height="50" relative="1" as="geometry">
            <mxPoint x="37" y="136" as="sourcePoint" />
            <mxPoint x="197" y="136" as="targetPoint" />
            <Array as="points">
              <mxPoint x="197" y="136" />
            </Array>
          </mxGeometry>
        </mxCell>
        <mxCell id="iCpca2zt7FOvX1AVPzIG-37" value="Connect" style="text;html=1;align=center;verticalAlign=bottom;resizable=0;points=[];autosize=1;strokeColor=none;fillColor=none;fontSize=12;" parent="1" vertex="1">
          <mxGeometry x="72" y="56" width="70" height="30" as="geometry" />
        </mxCell>
        <mxCell id="iCpca2zt7FOvX1AVPzIG-38" value="Connect Acknowledge" style="text;html=1;align=center;verticalAlign=bottom;resizable=0;points=[];autosize=1;strokeColor=none;fillColor=none;fontSize=12;" parent="1" vertex="1">
          <mxGeometry x="37" y="81" width="140" height="30" as="geometry" />
        </mxCell>
        <mxCell id="iCpca2zt7FOvX1AVPzIG-39" value="Subscribe (topic: temp)" style="text;html=1;align=center;verticalAlign=bottom;resizable=0;points=[];autosize=1;strokeColor=none;fillColor=none;fontSize=12;" parent="1" vertex="1">
          <mxGeometry x="32" y="106" width="150" height="30" as="geometry" />
        </mxCell>
        <mxCell id="iCpca2zt7FOvX1AVPzIG-40" value="" style="edgeStyle=segmentEdgeStyle;endArrow=classic;html=1;curved=0;rounded=0;endSize=8;startSize=8;verticalAlign=bottom;fontSize=10;exitX=0.444;exitY=0.5;exitDx=0;exitDy=0;exitPerimeter=0;" parent="1" source="iCpca2zt7FOvX1AVPzIG-31" edge="1">
          <mxGeometry width="50" height="50" relative="1" as="geometry">
            <mxPoint x="357" y="166" as="sourcePoint" />
            <mxPoint x="197" y="166" as="targetPoint" />
            <Array as="points" />
          </mxGeometry>
        </mxCell>
        <mxCell id="iCpca2zt7FOvX1AVPzIG-41" value="" style="edgeStyle=segmentEdgeStyle;endArrow=classic;html=1;curved=0;rounded=0;endSize=8;startSize=8;entryX=0.536;entryY=0.5;entryDx=0;entryDy=0;entryPerimeter=0;verticalAlign=bottom;fontSize=10;" parent="1" target="iCpca2zt7FOvX1AVPzIG-31" edge="1">
          <mxGeometry width="50" height="50" relative="1" as="geometry">
            <mxPoint x="197" y="191" as="sourcePoint" />
            <mxPoint x="357" y="190.79" as="targetPoint" />
          </mxGeometry>
        </mxCell>
        <mxCell id="iCpca2zt7FOvX1AVPzIG-42" value="" style="edgeStyle=segmentEdgeStyle;endArrow=classic;html=1;curved=0;rounded=0;endSize=8;startSize=8;entryX=0.25;entryY=0.5;entryDx=0;entryDy=0;entryPerimeter=0;verticalAlign=bottom;fontSize=10;exitX=0.629;exitY=0.556;exitDx=0;exitDy=0;exitPerimeter=0;" parent="1" source="iCpca2zt7FOvX1AVPzIG-31" edge="1">
          <mxGeometry width="50" height="50" relative="1" as="geometry">
            <mxPoint x="357" y="216" as="sourcePoint" />
            <mxPoint x="197" y="216" as="targetPoint" />
          </mxGeometry>
        </mxCell>
        <mxCell id="iCpca2zt7FOvX1AVPzIG-43" value="Connect" style="text;html=1;align=center;verticalAlign=bottom;resizable=0;points=[];autosize=1;strokeColor=none;fillColor=none;fontSize=12;" parent="1" vertex="1">
          <mxGeometry x="252" y="136" width="70" height="30" as="geometry" />
        </mxCell>
        <mxCell id="iCpca2zt7FOvX1AVPzIG-44" value="Connect Acknowledge" style="text;html=1;align=center;verticalAlign=bottom;resizable=0;points=[];autosize=1;strokeColor=none;fillColor=none;fontSize=12;" parent="1" vertex="1">
          <mxGeometry x="217" y="161" width="140" height="30" as="geometry" />
        </mxCell>
        <mxCell id="iCpca2zt7FOvX1AVPzIG-45" value="Publish (temp, 25°)" style="text;html=1;align=center;verticalAlign=bottom;resizable=0;points=[];autosize=1;strokeColor=none;fillColor=none;fontSize=12;" parent="1" vertex="1">
          <mxGeometry x="222" y="186" width="130" height="30" as="geometry" />
        </mxCell>
        <mxCell id="iCpca2zt7FOvX1AVPzIG-53" value="" style="edgeStyle=segmentEdgeStyle;endArrow=classic;html=1;curved=0;rounded=0;endSize=8;startSize=8;verticalAlign=bottom;fontSize=10;entryX=0.721;entryY=0.428;entryDx=0;entryDy=0;entryPerimeter=0;" parent="1" target="iCpca2zt7FOvX1AVPzIG-29" edge="1">
          <mxGeometry width="50" height="50" relative="1" as="geometry">
            <mxPoint x="197.01" y="241" as="sourcePoint" />
            <mxPoint x="37.00999999999999" y="241" as="targetPoint" />
            <Array as="points">
              <mxPoint x="37" y="241" />
            </Array>
          </mxGeometry>
        </mxCell>
        <mxCell id="iCpca2zt7FOvX1AVPzIG-54" value="" style="edgeStyle=segmentEdgeStyle;endArrow=classic;html=1;curved=0;rounded=0;endSize=8;startSize=8;entryX=0.25;entryY=0.5;entryDx=0;entryDy=0;entryPerimeter=0;verticalAlign=bottom;fontSize=10;exitX=0.813;exitY=0.453;exitDx=0;exitDy=0;exitPerimeter=0;" parent="1" source="iCpca2zt7FOvX1AVPzIG-29" edge="1">
          <mxGeometry width="50" height="50" relative="1" as="geometry">
            <mxPoint x="37.00999999999999" y="266" as="sourcePoint" />
            <mxPoint x="197.01" y="265.78999999999996" as="targetPoint" />
          </mxGeometry>
        </mxCell>
        <mxCell id="iCpca2zt7FOvX1AVPzIG-55" value="" style="edgeStyle=segmentEdgeStyle;endArrow=classic;html=1;curved=0;rounded=0;endSize=8;startSize=8;entryX=0.908;entryY=0.502;entryDx=0;entryDy=0;entryPerimeter=0;verticalAlign=bottom;fontSize=10;" parent="1" target="iCpca2zt7FOvX1AVPzIG-29" edge="1">
          <mxGeometry width="50" height="50" relative="1" as="geometry">
            <mxPoint x="197.01" y="291" as="sourcePoint" />
            <mxPoint x="37.00999999999999" y="291" as="targetPoint" />
          </mxGeometry>
        </mxCell>
        <mxCell id="iCpca2zt7FOvX1AVPzIG-56" value="Connect" style="text;html=1;align=center;verticalAlign=bottom;resizable=0;points=[];autosize=1;strokeColor=none;fillColor=none;fontSize=12;" parent="1" vertex="1">
          <mxGeometry x="71.99999999999999" y="211" width="70" height="30" as="geometry" />
        </mxCell>
        <mxCell id="iCpca2zt7FOvX1AVPzIG-57" value="Connect Acknowledge" style="text;html=1;align=center;verticalAlign=bottom;resizable=0;points=[];autosize=1;strokeColor=none;fillColor=none;fontSize=12;" parent="1" vertex="1">
          <mxGeometry x="36.999999999999986" y="236" width="140" height="30" as="geometry" />
        </mxCell>
        <mxCell id="iCpca2zt7FOvX1AVPzIG-58" value="Publish (temp, 25°)" style="text;html=1;align=center;verticalAlign=bottom;resizable=0;points=[];autosize=1;strokeColor=none;fillColor=none;fontSize=12;" parent="1" vertex="1">
          <mxGeometry x="41.999999999999986" y="261" width="130" height="30" as="geometry" />
        </mxCell>
        <mxCell id="iCpca2zt7FOvX1AVPzIG-59" value="Client A" style="text;strokeColor=none;fillColor=none;html=1;fontSize=24;fontStyle=1;verticalAlign=middle;align=left;" parent="1" vertex="1">
          <mxGeometry x="2" y="6" width="100" height="40" as="geometry" />
        </mxCell>
        <mxCell id="iCpca2zt7FOvX1AVPzIG-60" value="Client B" style="text;strokeColor=none;fillColor=none;html=1;fontSize=24;fontStyle=1;verticalAlign=middle;align=right;" parent="1" vertex="1">
          <mxGeometry x="292" y="6" width="100" height="40" as="geometry" />
        </mxCell>
        <mxCell id="iCpca2zt7FOvX1AVPzIG-61" value="Broker" style="text;strokeColor=none;fillColor=none;html=1;fontSize=24;fontStyle=1;verticalAlign=middle;align=center;" parent="1" vertex="1">
          <mxGeometry x="147" y="6" width="100" height="40" as="geometry" />
        </mxCell>
        <mxCell id="o9a8w7Hs84jt4Q85dmBR-1" value="Client A" style="rounded=1;whiteSpace=wrap;html=1;fontSize=18;fontStyle=1" vertex="1" parent="1">
          <mxGeometry x="37" y="320" width="120" height="60" as="geometry" />
        </mxCell>
        <mxCell id="o9a8w7Hs84jt4Q85dmBR-2" value="Client B" style="rounded=1;whiteSpace=wrap;html=1;fontStyle=1;fontSize=18;" vertex="1" parent="1">
          <mxGeometry x="37" y="440" width="120" height="60" as="geometry" />
        </mxCell>
        <mxCell id="o9a8w7Hs84jt4Q85dmBR-3" value="Broker" style="rounded=1;whiteSpace=wrap;html=1;fontStyle=1;fontSize=18;" vertex="1" parent="1">
          <mxGeometry x="237" y="380" width="120" height="60" as="geometry" />
        </mxCell>
        <mxCell id="o9a8w7Hs84jt4Q85dmBR-4" value="" style="endArrow=classic;html=1;rounded=0;" edge="1" parent="1">
          <mxGeometry width="50" height="50" relative="1" as="geometry">
            <mxPoint x="169" y="480" as="sourcePoint" />
            <mxPoint x="219" y="430" as="targetPoint" />
          </mxGeometry>
        </mxCell>
        <mxCell id="o9a8w7Hs84jt4Q85dmBR-5" value="" style="endArrow=classic;html=1;rounded=0;" edge="1" parent="1">
          <mxGeometry width="50" height="50" relative="1" as="geometry">
            <mxPoint x="169" y="340" as="sourcePoint" />
            <mxPoint x="219" y="390" as="targetPoint" />
          </mxGeometry>
        </mxCell>
        <mxCell id="o9a8w7Hs84jt4Q85dmBR-6" value="" style="endArrow=classic;html=1;rounded=0;" edge="1" parent="1">
          <mxGeometry width="50" height="50" relative="1" as="geometry">
            <mxPoint x="219" y="415" as="sourcePoint" />
            <mxPoint x="169" y="365" as="targetPoint" />
          </mxGeometry>
        </mxCell>
        <mxCell id="o9a8w7Hs84jt4Q85dmBR-7" value="1) Subscribe&amp;nbsp;&amp;nbsp;(topic: temp)" style="text;html=1;align=left;verticalAlign=middle;resizable=0;points=[];autosize=1;strokeColor=none;fillColor=none;" vertex="1" parent="1">
          <mxGeometry x="197" y="335" width="160" height="30" as="geometry" />
        </mxCell>
        <mxCell id="o9a8w7Hs84jt4Q85dmBR-8" value="3) Publish (temp, 25°)" style="text;html=1;align=right;verticalAlign=middle;resizable=0;points=[];autosize=1;strokeColor=none;fillColor=none;" vertex="1" parent="1">
          <mxGeometry x="42" y="380" width="140" height="30" as="geometry" />
        </mxCell>
        <mxCell id="o9a8w7Hs84jt4Q85dmBR-9" value="2) Publish (temp, 25°)" style="text;html=1;align=left;verticalAlign=middle;resizable=0;points=[];autosize=1;strokeColor=none;fillColor=none;" vertex="1" parent="1">
          <mxGeometry x="200" y="455" width="140" height="30" as="geometry" />
        </mxCell>
      </root>
    </mxGraphModel>
  </diagram>
  <diagram id="hTG8nPSUfSZkNF-FBnmc" name="PubSubDg">
    <mxGraphModel dx="1434" dy="854" grid="1" gridSize="10" guides="1" tooltips="1" connect="1" arrows="1" fold="1" page="1" pageScale="1" pageWidth="394" pageHeight="220" math="0" shadow="0">
      <root>
        <mxCell id="0" />
        <mxCell id="1" parent="0" />
        <mxCell id="KuCLGwEYUTV32uc0Tkd5-1" value="Client" style="rounded=1;whiteSpace=wrap;html=1;fontSize=18;fontStyle=1" vertex="1" parent="1">
          <mxGeometry x="40" y="20" width="120" height="60" as="geometry" />
        </mxCell>
        <mxCell id="KuCLGwEYUTV32uc0Tkd5-2" value="Client" style="rounded=1;whiteSpace=wrap;html=1;fontStyle=1;fontSize=18;" vertex="1" parent="1">
          <mxGeometry x="40" y="140" width="120" height="60" as="geometry" />
        </mxCell>
        <mxCell id="KuCLGwEYUTV32uc0Tkd5-3" value="Broker" style="rounded=1;whiteSpace=wrap;html=1;fontStyle=1;fontSize=18;" vertex="1" parent="1">
          <mxGeometry x="240" y="80" width="120" height="60" as="geometry" />
        </mxCell>
        <mxCell id="KuCLGwEYUTV32uc0Tkd5-6" value="" style="endArrow=classic;html=1;rounded=0;" edge="1" parent="1">
          <mxGeometry width="50" height="50" relative="1" as="geometry">
            <mxPoint x="172" y="180" as="sourcePoint" />
            <mxPoint x="222" y="130" as="targetPoint" />
          </mxGeometry>
        </mxCell>
        <mxCell id="KuCLGwEYUTV32uc0Tkd5-7" value="" style="endArrow=classic;html=1;rounded=0;" edge="1" parent="1">
          <mxGeometry width="50" height="50" relative="1" as="geometry">
            <mxPoint x="172" y="40" as="sourcePoint" />
            <mxPoint x="222" y="90" as="targetPoint" />
          </mxGeometry>
        </mxCell>
        <mxCell id="KuCLGwEYUTV32uc0Tkd5-8" value="" style="endArrow=classic;html=1;rounded=0;" edge="1" parent="1">
          <mxGeometry width="50" height="50" relative="1" as="geometry">
            <mxPoint x="222" y="115" as="sourcePoint" />
            <mxPoint x="172" y="65" as="targetPoint" />
          </mxGeometry>
        </mxCell>
        <mxCell id="KuCLGwEYUTV32uc0Tkd5-9" value="1) Subscribe" style="text;html=1;align=center;verticalAlign=middle;resizable=0;points=[];autosize=1;strokeColor=none;fillColor=none;" vertex="1" parent="1">
          <mxGeometry x="190" y="35" width="90" height="30" as="geometry" />
        </mxCell>
        <mxCell id="KuCLGwEYUTV32uc0Tkd5-10" value="3) Publish" style="text;html=1;align=center;verticalAlign=middle;resizable=0;points=[];autosize=1;strokeColor=none;fillColor=none;" vertex="1" parent="1">
          <mxGeometry x="120" y="80" width="80" height="30" as="geometry" />
        </mxCell>
        <mxCell id="KuCLGwEYUTV32uc0Tkd5-11" value="2) Publish" style="text;html=1;align=center;verticalAlign=middle;resizable=0;points=[];autosize=1;strokeColor=none;fillColor=none;" vertex="1" parent="1">
          <mxGeometry x="190" y="155" width="80" height="30" as="geometry" />
        </mxCell>
      </root>
    </mxGraphModel>
  </diagram>
</mxfile>
